# xmcd
#
# Track frame offsets:
#	150
#	10127
#	20660
#	35332
#	48202
#	63977
#	73575
#	84790
#	96150
#	110782
#	122282
#	140952
#
# Disc length: 2034 seconds
#
# Revision: 0
# Processed by: cddbd v1.4PL0 Copyright (c) Steve Scherf et al.
# Submitted via: EasyCDDAExtractor 5.0.4.1
#
DISCID=9b07f00c
DTITLE=Graves, Tim - Walking On New Grass
DYEAR=1900
DGENRE=Country
TTITLE0=Walking On New Grass
TTITLE1=Another Tear
TTITLE2=Someone's Child
TTITLE3=Get Behind Me Satan
TTITLE4=Bitter They Are Harder They Fall
TTITLE5=Fireball
TTITLE6=When The Wall Come Tumblin' Down
TTITLE7=There'll Be No Teardrops Tonight
TTITLE8=(I'll Be Your) Steeping Stone
TTITLE9=Orville's Waltz
TTITLE10=Precious Memories
TTITLE11=Close To The Edge
EXTD=
EXTT0=
EXTT1=
EXTT2=
EXTT3=
EXTT4=
EXTT5=
EXTT6=
EXTT7=
EXTT8=
EXTT9=
EXTT10=
EXTT11=
PLAYORDER=
